<svg width="124" height="60" viewBox="0 0 124 60" fill="none" xmlns="http://www.w3.org/2000/svg">
<path d="M10.0879 1.00957V14.1518H17.8186V7.658H31.2701C38.4597 10.1318 39.4647 20.1045 30.497 22.0372V36.4163L36.2178 45.6932H44.8762L33.8986 28.0672C41.1654 27.0622 43.33 22.0372 44.7216 18.713L55.9311 45.6932C54.8185 51.6788 53.0648 53.1909 47.9685 52.6509V59.1447C54.3739 59.1217 57.118 57.9608 60.3377 53.5786L74.253 19.2541H91.2606L74.8714 40.2817V45.6932H100.537V40.2817H83.298L99.6871 19.2541V13.3787H69.1507L59.5646 37.6533L50.1331 13.3787H44.8762C44.8762 13.3787 42.762 0.601514 31.2701 1.00957H10.0879Z" fill="white" stroke="black" stroke-width="0.154615"/>
<path d="M0 45.9642V24.4395H8.21854V29.9185L4.69631 33.0493H8.21854V45.9642H0Z" fill="#40BDB5"/>
<path d="M10.2832 29.9192V17.7871H17.719V36.5723H14.1968L17.719 39.7032V45.9649H10.2832V33.0501H13.4141L10.2832 29.9192Z" fill="#FDA657"/>
<path d="M19.9082 36.5721V11.1338H27.7354V45.9647H19.9082V39.703L23.4304 36.5721H19.9082Z" fill="#3F94CD"/>
<path d="M70.4762 52.6671V56.2568H69.8874V52.6671H70.4762ZM72.6852 53.3644C72.909 53.3644 73.1087 53.4109 73.2843 53.5039C73.4634 53.5968 73.6028 53.7346 73.7027 53.9171C73.8025 54.0996 73.8525 54.3199 73.8525 54.5782V56.2568H73.2688V54.666C73.2688 54.4112 73.2051 54.2166 73.0777 54.0823C72.9503 53.9446 72.7764 53.8757 72.556 53.8757C72.3357 53.8757 72.16 53.9446 72.0292 54.0823C71.9018 54.2166 71.8381 54.4112 71.8381 54.666V56.2568H71.2493V53.4109H71.8381V53.7363C71.9345 53.6192 72.0567 53.528 72.2048 53.4625C72.3563 53.3971 72.5164 53.3644 72.6852 53.3644ZM75.7037 55.73L76.5094 53.4109H77.1344L76.0498 56.2568H75.3473L74.2678 53.4109H74.8979L75.7037 55.73ZM80.1879 54.7641C80.1879 54.8709 80.181 54.9673 80.1672 55.0534H77.9927C78.0099 55.2806 78.0943 55.4631 78.2458 55.6009C78.3973 55.7386 78.5832 55.8075 78.8036 55.8075C79.1204 55.8075 79.3442 55.6749 79.4751 55.4098H80.1104C80.0243 55.6715 79.8676 55.8867 79.6404 56.0554C79.4165 56.2207 79.1376 56.3033 78.8036 56.3033C78.5316 56.3033 78.2871 56.2431 78.0702 56.1225C77.8567 55.9986 77.688 55.8264 77.564 55.606C77.4435 55.3822 77.3832 55.124 77.3832 54.8313C77.3832 54.5386 77.4418 54.2821 77.5588 54.0617C77.6794 53.8379 77.8464 53.6657 78.0599 53.5452C78.2768 53.4247 78.5247 53.3644 78.8036 53.3644C79.0722 53.3644 79.3115 53.4229 79.5216 53.54C79.7316 53.6571 79.8952 53.8224 80.0123 54.0359C80.1293 54.2459 80.1879 54.4887 80.1879 54.7641ZM79.5732 54.5782C79.5698 54.3613 79.4923 54.1874 79.3408 54.0565C79.1893 53.9257 79.0016 53.8602 78.7778 53.8602C78.5746 53.8602 78.4007 53.9257 78.2561 54.0565C78.1115 54.1839 78.0254 54.3578 77.9979 54.5782H79.5732ZM81.8003 56.3033C81.5765 56.3033 81.3751 56.2637 81.196 56.1845C81.0204 56.1019 80.881 55.9917 80.7777 55.854C80.6743 55.7128 80.6193 55.5561 80.6124 55.3839H81.2218C81.2322 55.5045 81.289 55.606 81.3923 55.6887C81.499 55.7679 81.6316 55.8075 81.79 55.8075C81.9553 55.8075 82.0827 55.7765 82.1722 55.7145C82.2652 55.6491 82.3117 55.5664 82.3117 55.4666C82.3117 55.3598 82.26 55.2806 82.1567 55.229C82.0569 55.1773 81.8967 55.1205 81.6764 55.0585C81.4629 55 81.289 54.9432 81.1547 54.8881C81.0204 54.833 80.9033 54.7486 80.8035 54.635C80.7071 54.5214 80.6589 54.3716 80.6589 54.1856C80.6589 54.0341 80.7036 53.8964 80.7931 53.7724C80.8827 53.645 81.0101 53.5452 81.1754 53.4729C81.3441 53.4006 81.5369 53.3644 81.7538 53.3644C82.0775 53.3644 82.3375 53.447 82.5338 53.6123C82.7335 53.7742 82.8402 53.9963 82.854 54.2786H82.2652C82.2549 54.1512 82.2032 54.0496 82.1102 53.9739C82.0173 53.8981 81.8916 53.8602 81.7332 53.8602C81.5782 53.8602 81.4594 53.8895 81.3768 53.948C81.2942 54.0066 81.2528 54.0841 81.2528 54.1805C81.2528 54.2562 81.2804 54.3199 81.3355 54.3716C81.3906 54.4232 81.4577 54.4646 81.5369 54.4955C81.6161 54.5231 81.7332 54.5592 81.8881 54.604C82.0947 54.6591 82.2635 54.7159 82.3943 54.7745C82.5286 54.8296 82.644 54.9122 82.7404 55.0224C82.8368 55.1326 82.8867 55.2789 82.8902 55.4614C82.8902 55.6233 82.8454 55.7679 82.7559 55.8953C82.6663 56.0227 82.5389 56.1225 82.3737 56.1949C82.2118 56.2672 82.0207 56.3033 81.8003 56.3033ZM84.2134 53.8912V55.4666C84.2134 55.5733 84.2375 55.6508 84.2857 55.699C84.3373 55.7438 84.4234 55.7662 84.5439 55.7662H84.9055V56.2568H84.4406C84.1755 56.2568 83.9723 56.1949 83.8311 56.0709C83.69 55.9469 83.6194 55.7455 83.6194 55.4666V53.8912H83.2836V53.4109H83.6194V52.7033H84.2134V53.4109H84.9055V53.8912H84.2134ZM93.2541 52.6671V56.2568H92.6653V53.7983L91.5703 56.2568H91.1623L90.0621 53.7983V56.2568H89.4733V52.6671H90.1086L91.3689 55.4821L92.624 52.6671H93.2541ZM95.2625 56.3033C94.9939 56.3033 94.7511 56.2431 94.5342 56.1225C94.3173 55.9986 94.1468 55.8264 94.0229 55.606C93.8989 55.3822 93.8369 55.124 93.8369 54.8313C93.8369 54.542 93.9006 54.2855 94.028 54.0617C94.1554 53.8379 94.3293 53.6657 94.5497 53.5452C94.7701 53.4247 95.0163 53.3644 95.2883 53.3644C95.5603 53.3644 95.8065 53.4247 96.0269 53.5452C96.2473 53.6657 96.4212 53.8379 96.5486 54.0617C96.676 54.2855 96.7397 54.542 96.7397 54.8313C96.7397 55.1205 96.6743 55.3771 96.5434 55.6009C96.4126 55.8247 96.2335 55.9986 96.0063 56.1225C95.7824 56.2431 95.5345 56.3033 95.2625 56.3033ZM95.2625 55.792C95.414 55.792 95.5552 55.7558 95.686 55.6835C95.8203 55.6112 95.9288 55.5027 96.0114 55.3581C96.0941 55.2135 96.1354 55.0379 96.1354 54.8313C96.1354 54.6247 96.0958 54.4508 96.0166 54.3096C95.9374 54.165 95.8324 54.0565 95.7015 53.9842C95.5707 53.9119 95.4295 53.8757 95.278 53.8757C95.1265 53.8757 94.9853 53.9119 94.8544 53.9842C94.727 54.0565 94.6255 54.165 94.5497 54.3096C94.474 54.4508 94.4361 54.6247 94.4361 54.8313C94.4361 55.1377 94.5136 55.3753 94.6685 55.5441C94.8269 55.7093 95.0249 55.792 95.2625 55.792ZM98.7577 53.3644C98.9815 53.3644 99.1812 53.4109 99.3568 53.5039C99.5359 53.5968 99.6753 53.7346 99.7752 53.9171C99.875 54.0996 99.925 54.3199 99.925 54.5782V56.2568H99.3413V54.666C99.3413 54.4112 99.2776 54.2166 99.1502 54.0823C99.0228 53.9446 98.8489 53.8757 98.6285 53.8757C98.4082 53.8757 98.2326 53.9446 98.1017 54.0823C97.9743 54.2166 97.9106 54.4112 97.9106 54.666V56.2568H97.3218V53.4109H97.9106V53.7363C98.007 53.6192 98.1293 53.528 98.2773 53.4625C98.4288 53.3971 98.5889 53.3644 98.7577 53.3644ZM100.976 53.0338C100.869 53.0338 100.779 52.9977 100.707 52.9254C100.635 52.8531 100.599 52.7635 100.599 52.6568C100.599 52.55 100.635 52.4605 100.707 52.3882C100.779 52.3159 100.869 52.2797 100.976 52.2797C101.079 52.2797 101.167 52.3159 101.239 52.3882C101.311 52.4605 101.348 52.55 101.348 52.6568C101.348 52.7635 101.311 52.8531 101.239 52.9254C101.167 52.9977 101.079 53.0338 100.976 53.0338ZM101.265 53.4109V56.2568H100.676V53.4109H101.265ZM102.725 53.8912V55.4666C102.725 55.5733 102.749 55.6508 102.797 55.699C102.849 55.7438 102.935 55.7662 103.055 55.7662H103.417V56.2568H102.952C102.687 56.2568 102.484 56.1949 102.343 56.0709C102.201 55.9469 102.131 55.7455 102.131 55.4666V53.8912H101.795V53.4109H102.131V52.7033H102.725V53.4109H103.417V53.8912H102.725ZM105.194 56.3033C104.926 56.3033 104.683 56.2431 104.466 56.1225C104.249 55.9986 104.078 55.8264 103.955 55.606C103.831 55.3822 103.769 55.124 103.769 54.8313C103.769 54.542 103.832 54.2855 103.96 54.0617C104.087 53.8379 104.261 53.6657 104.481 53.5452C104.702 53.4247 104.948 53.3644 105.22 53.3644C105.492 53.3644 105.738 53.4247 105.959 53.5452C106.179 53.6657 106.353 53.8379 106.48 54.0617C106.608 54.2855 106.671 54.542 106.671 54.8313C106.671 55.1205 106.606 55.3771 106.475 55.6009C106.344 55.8247 106.165 55.9986 105.938 56.1225C105.714 56.2431 105.466 56.3033 105.194 56.3033ZM105.194 55.792C105.346 55.792 105.487 55.7558 105.618 55.6835C105.752 55.6112 105.86 55.5027 105.943 55.3581C106.026 55.2135 106.067 55.0379 106.067 54.8313C106.067 54.6247 106.027 54.4508 105.948 54.3096C105.869 54.165 105.764 54.0565 105.633 53.9842C105.502 53.9119 105.361 53.8757 105.21 53.8757C105.058 53.8757 104.917 53.9119 104.786 53.9842C104.659 54.0565 104.557 54.165 104.481 54.3096C104.406 54.4508 104.368 54.6247 104.368 54.8313C104.368 55.1377 104.445 55.3753 104.6 55.5441C104.759 55.7093 104.957 55.792 105.194 55.792ZM107.842 53.8241C107.928 53.6795 108.042 53.5676 108.183 53.4884C108.328 53.4057 108.498 53.3644 108.695 53.3644V53.9739H108.545C108.314 53.9739 108.138 54.0324 108.018 54.1495C107.901 54.2666 107.842 54.4697 107.842 54.759V56.2568H107.253V53.4109H107.842V53.8241ZM115.125 56.2568L114.299 54.8209H113.85V56.2568H113.261V52.6671H114.5C114.776 52.6671 115.008 52.7153 115.198 52.8117C115.391 52.9081 115.533 53.0373 115.626 53.1991C115.723 53.361 115.771 53.5417 115.771 53.7414C115.771 53.9756 115.702 54.1891 115.564 54.3819C115.43 54.5713 115.222 54.7004 114.94 54.7693L115.828 56.2568H115.125ZM113.85 54.3509H114.5C114.721 54.3509 114.886 54.2958 114.996 54.1856C115.11 54.0755 115.167 53.9274 115.167 53.7414C115.167 53.5555 115.112 53.4109 115.001 53.3076C114.891 53.2008 114.724 53.1475 114.5 53.1475H113.85V54.3509ZM116.824 53.0338C116.717 53.0338 116.628 52.9977 116.555 52.9254C116.483 52.8531 116.447 52.7635 116.447 52.6568C116.447 52.55 116.483 52.4605 116.555 52.3882C116.628 52.3159 116.717 52.2797 116.824 52.2797C116.927 52.2797 117.015 52.3159 117.087 52.3882C117.16 52.4605 117.196 52.55 117.196 52.6568C117.196 52.7635 117.16 52.8531 117.087 52.9254C117.015 52.9977 116.927 53.0338 116.824 53.0338ZM117.113 53.4109V56.2568H116.524V53.4109H117.113ZM118.919 56.3033C118.695 56.3033 118.494 56.2637 118.315 56.1845C118.139 56.1019 118 55.9917 117.897 55.854C117.793 55.7128 117.738 55.5561 117.731 55.3839H118.341C118.351 55.5045 118.408 55.606 118.511 55.6887C118.618 55.7679 118.751 55.8075 118.909 55.8075C119.074 55.8075 119.202 55.7765 119.291 55.7145C119.384 55.6491 119.431 55.5664 119.431 55.4666C119.431 55.3598 119.379 55.2806 119.276 55.229C119.176 55.1773 119.016 55.1205 118.795 55.0585C118.582 55 118.408 54.9432 118.274 54.8881C118.139 54.833 118.022 54.7486 117.922 54.635C117.826 54.5214 117.778 54.3716 117.778 54.1856C117.778 54.0341 117.823 53.8964 117.912 53.7724C118.002 53.645 118.129 53.5452 118.294 53.4729C118.463 53.4006 118.656 53.3644 118.873 53.3644C119.196 53.3644 119.456 53.447 119.653 53.6123C119.852 53.7742 119.959 53.9963 119.973 54.2786H119.384C119.374 54.1512 119.322 54.0496 119.229 53.9739C119.136 53.8981 119.01 53.8602 118.852 53.8602C118.697 53.8602 118.578 53.8895 118.496 53.948C118.413 54.0066 118.372 54.0841 118.372 54.1805C118.372 54.2562 118.399 54.3199 118.454 54.3716C118.509 54.4232 118.577 54.4646 118.656 54.4955C118.735 54.5231 118.852 54.5592 119.007 54.604C119.214 54.6591 119.382 54.7159 119.513 54.7745C119.648 54.8296 119.763 54.9122 119.859 55.0224C119.956 55.1326 120.006 55.2789 120.009 55.4614C120.009 55.6233 119.964 55.7679 119.875 55.8953C119.785 56.0227 119.658 56.1225 119.493 56.1949C119.331 56.2672 119.14 56.3033 118.919 56.3033ZM123.254 54.7641C123.254 54.8709 123.247 54.9673 123.233 55.0534H121.059C121.076 55.2806 121.16 55.4631 121.312 55.6009C121.463 55.7386 121.649 55.8075 121.869 55.8075C122.186 55.8075 122.41 55.6749 122.541 55.4098H123.176C123.09 55.6715 122.933 55.8867 122.706 56.0554C122.482 56.2207 122.203 56.3033 121.869 56.3033C121.597 56.3033 121.353 56.2431 121.136 56.1225C120.922 55.9986 120.754 55.8264 120.63 55.606C120.509 55.3822 120.449 55.124 120.449 54.8313C120.449 54.5386 120.508 54.2821 120.625 54.0617C120.745 53.8379 120.912 53.6657 121.126 53.5452C121.343 53.4247 121.591 53.3644 121.869 53.3644C122.138 53.3644 122.377 53.4229 122.587 53.54C122.797 53.6571 122.961 53.8224 123.078 54.0359C123.195 54.2459 123.254 54.4887 123.254 54.7641ZM122.639 54.5782C122.636 54.3613 122.558 54.1874 122.407 54.0565C122.255 53.9257 122.067 53.8602 121.844 53.8602C121.64 53.8602 121.467 53.9257 121.322 54.0565C121.177 54.1839 121.091 54.3578 121.064 54.5782H122.639Z" fill="white"/>
</svg>
